<svg id="Capa_1" enable-background="new 0 0 512 512" height="512" viewBox="0 0 512 512" width="512" xmlns="http://www.w3.org/2000/svg"><g><circle cx="424" cy="424" r="17"/><path d="m482 336h-26.31c41.936-104.631-4.299-228.014-111.69-276.29v-29.71c0-16.57-13.43-30-30-30h-116c-16.57 0-30 13.43-30 30v29.72c-75.393 33.768-129.921 111.533-126.88 203.38.83 25.4 6.03 49.99 15.2 72.9h-26.32c-16.57 0-30 13.43-30 30v116c0 16.57 13.43 30 30 30h116c16.57 0 30-13.43 30-30v-26.31c51.487 20.636 109.458 20.21 160-.02v26.33c0 16.57 13.43 30 30 30h116c16.57 0 30-13.43 30-30v-116c0-16.57-13.43-30-30-30zm-369 100-32 24c-6.609 4.945-16.002 3.659-21-3-4.97-6.63-3.63-16.03 3-21l16-12-16-12c-6.63-4.97-7.97-14.37-3-21s14.37-7.97 21-3l32 24c8 5.99 7.987 18.02 0 24zm223-70v56.92c-49.551 23.765-109.038 24.481-160-.01v-56.91c0-16.57-13.43-30-30-30h-56.92c-42.596-88.814-7.867-195.815 78.92-242.84v52.84c0 16.57 13.43 30 30 30h35v-49h-9c-8.28 0-15-6.72-15-15s6.72-15 15-15h9v-11c0-24.81 20.19-45 45-45h10c8.28 0 15 6.72 15 15s-6.72 15-15 15h-10c-8.27 0-15 6.73-15 15v11h25c8.28 0 15 6.72 15 15s-6.72 15-15 15h-25v49h51c16.57 0 30-13.43 30-30v-52.81c87.487 47.396 121.225 154.759 78.91 242.81h-56.91c-16.57 0-30 13.43-30 30zm88 105c-25.92 0-47-21.08-47-47s21.08-47 47-47 47 21.08 47 47-21.08 47-47 47z"/></g></svg>